<?xml version="1.0" standalone="no"?>
<!DOCTYPE svg PUBLIC "-//W3C//DTD SVG 20010904//EN"
 "http://www.w3.org/TR/2001/REC-SVG-20010904/DTD/svg10.dtd">
<svg version="1.0" xmlns="http://www.w3.org/2000/svg"
 width="1000.000000pt" height="1000.000000pt" viewBox="0 0 1000.000000 1000.000000"
 preserveAspectRatio="xMidYMid meet">
<metadata>
Created by potrace 1.14, written by Peter Selinger 2001-2017
</metadata>
<g transform="translate(0.000000,1000.000000) scale(0.100000,-0.100000)"
fill="#000000" stroke="none">
<path d="M4700 9835 c-1 -12 -4 -15 -7 -7 -4 10 -9 9 -20 -5 -8 -10 -12 -13
-9 -7 8 15 -21 26 -30 12 -5 -7 -2 -8 7 -3 8 5 10 4 6 0 -10 -12 -39 -16 -32
-5 7 12 -21 6 -38 -8 -11 -10 -17 -9 -27 4 -12 14 -15 13 -26 -8 -12 -21 -13
-21 -14 -4 0 20 0 20 -14 0 -14 -19 -15 -19 -29 0 -11 15 -16 16 -22 6 -6 -9
-4 -11 5 -5 9 5 11 4 6 -4 -6 -9 -11 -9 -22 0 -11 9 -17 9 -28 0 -11 -9 -15
-9 -18 1 -3 9 -11 8 -32 -6 -16 -10 -25 -13 -21 -6 9 15 -29 5 -62 -16 -20
-12 -22 -12 -17 1 5 11 2 13 -10 9 -9 -3 -13 -11 -10 -16 4 -6 -1 -6 -13 0
-21 12 -37 5 -46 -18 -4 -12 -6 -11 -6 3 -1 22 -9 22 -29 -1 -10 -10 -14 -13
-10 -7 15 23 -5 24 -23 2 -11 -12 -18 -17 -17 -10 2 6 0 11 -4 12 -22 3 -29 0
-23 -9 3 -5 1 -10 -4 -10 -6 0 -11 4 -11 9 0 5 -11 8 -24 7 -16 -1 -22 -5 -18
-16 5 -13 4 -13 -13 0 -10 8 -16 10 -12 3 4 -6 3 -14 -3 -18 -5 -3 -10 -1 -10
4 0 6 -5 11 -11 11 -5 0 -7 -4 -4 -10 3 -5 1 -10 -5 -10 -6 0 -8 -5 -4 -12 6
-10 4 -10 -8 0 -17 14 -100 13 -91 -1 3 -5 12 -6 20 -3 8 3 11 1 8 -4 -3 -5
-19 -7 -35 -3 -20 4 -30 2 -30 -7 0 -8 -9 -11 -25 -8 -13 3 -22 1 -19 -3 3 -5
-2 -9 -11 -9 -10 0 -13 5 -9 13 6 8 3 8 -9 -1 -9 -8 -22 -10 -29 -6 -8 5 -8 1
2 -11 14 -17 14 -18 -7 -7 -29 16 -36 15 -29 -4 6 -15 4 -15 -11 -3 -15 12
-16 12 -10 -3 4 -12 2 -15 -9 -11 -7 3 -14 10 -14 16 0 6 -7 2 -15 -10 -9 -13
-22 -20 -30 -16 -10 3 -14 0 -12 -8 2 -8 2 -11 0 -6 -3 4 -10 4 -15 1 -6 -4
-8 -2 -4 4 3 6 1 14 -5 18 -8 4 -9 3 -5 -4 11 -18 -44 -40 -77 -31 -16 4 -25
4 -21 -2 10 -17 -7 -31 -22 -18 -11 9 -14 9 -14 0 0 -7 -5 -9 -12 -5 -8 5 -9
2 -4 -11 6 -18 6 -18 -15 1 -12 10 -19 13 -15 7 13 -22 -5 -36 -20 -16 -12 17
-13 16 -9 -5 2 -13 0 -20 -6 -16 -5 3 -18 0 -27 -8 -15 -12 -16 -11 -4 4 10
12 10 18 1 24 -8 4 -9 3 -5 -4 4 -7 3 -12 -2 -12 -5 0 -14 -10 -21 -22 -6 -13
-9 -15 -7 -6 3 10 1 20 -4 23 -6 4 -10 -1 -10 -10 0 -9 -4 -14 -9 -11 -5 4
-11 0 -14 -6 -3 -10 -7 -10 -19 0 -13 10 -17 10 -22 -3 -3 -9 -11 -13 -18 -9
-7 5 -9 2 -5 -8 3 -9 0 -15 -6 -15 -41 1 -57 -5 -58 -20 0 -15 -2 -15 -9 2 -6
14 -9 15 -9 5 -1 -10 -19 -21 -48 -30 -26 -7 -42 -15 -35 -18 8 -2 3 -10 -13
-18 -34 -18 -44 -18 -21 -1 16 12 16 13 -3 13 -11 0 -17 -4 -15 -8 3 -5 -2
-11 -10 -14 -9 -3 -13 -11 -9 -18 3 -6 -4 -2 -16 8 -20 19 -21 19 -15 2 5 -14
3 -17 -7 -14 -21 8 -51 -11 -45 -28 3 -8 1 -14 -4 -14 -6 0 -11 10 -11 23 -1
20 -2 20 -6 2 -8 -33 -22 -43 -55 -40 -29 3 -31 2 -14 -10 16 -12 14 -13 -18
-11 -32 3 -35 1 -24 -12 11 -13 10 -15 -2 -10 -15 6 -45 -17 -32 -25 4 -2 2
-2 -5 -1 -6 2 -14 -2 -17 -9 -3 -7 -3 -1 0 12 6 21 4 22 -9 10 -8 -8 -13 -17
-11 -20 2 -4 -3 -9 -11 -12 -10 -4 -12 -1 -9 11 5 15 4 15 -6 -1 -6 -10 -16
-14 -23 -10 -7 4 -6 0 2 -10 7 -9 18 -14 24 -10 6 4 7 1 2 -6 -5 -9 -10 -10
-18 -2 -14 14 -40 15 -32 1 3 -5 2 -10 -4 -10 -5 0 -12 6 -14 13 -3 7 -6 5 -6
-5 -1 -10 -6 -18 -12 -18 -5 0 -8 -4 -4 -9 3 -5 0 -13 -6 -17 -7 -4 -9 -3 -6
3 4 6 -2 13 -13 16 -11 3 -19 2 -18 -2 2 -20 -4 -30 -17 -25 -9 4 -15 0 -15
-9 0 -9 -5 -19 -12 -23 -7 -4 -8 -3 -4 4 4 7 1 12 -8 12 -9 0 -13 -6 -10 -14
3 -8 0 -17 -7 -22 -8 -5 -10 -3 -4 6 5 8 3 11 -6 8 -8 -3 -13 -11 -11 -18 3
-11 0 -11 -13 0 -14 11 -16 11 -13 -1 2 -8 8 -17 13 -21 6 -5 5 -8 -3 -8 -7 0
-15 7 -18 15 -6 14 -8 13 -19 -1 -6 -9 -17 -14 -23 -10 -6 3 -14 2 -17 -4 -4
-6 -3 -10 2 -9 18 3 33 -2 33 -10 0 -5 -12 -8 -26 -5 -18 3 -23 1 -18 -7 5 -9
2 -10 -9 -6 -11 4 -17 1 -17 -8 0 -7 -5 -17 -12 -21 -7 -4 -8 -3 -4 4 4 7 2
12 -3 12 -6 0 -11 -6 -11 -14 0 -8 -5 -18 -12 -22 -6 -4 -8 -3 -5 3 3 5 0 10
-7 10 -8 0 -12 -7 -8 -15 3 -9 1 -13 -4 -9 -6 3 -17 -3 -24 -14 -15 -20 -36
-27 -24 -7 5 7 3 8 -5 4 -7 -5 -10 -14 -8 -20 7 -18 -8 -41 -17 -27 -4 6 -2
11 4 11 6 0 8 5 4 11 -5 8 -10 6 -16 -5 -5 -9 -6 -22 -2 -29 5 -7 0 -6 -11 3
-11 9 -16 10 -11 3 12 -21 -3 -34 -25 -22 -19 10 -20 9 -8 -13 12 -22 11 -22
-6 -8 -17 14 -18 13 -12 -2 3 -10 3 -17 -1 -17 -24 4 -34 -3 -28 -18 6 -14 3
-14 -15 3 -22 19 -22 19 -11 -3 9 -17 9 -22 -3 -26 -10 -4 -12 -1 -8 11 6 14
5 15 -9 2 -15 -14 -15 -17 0 -35 16 -18 16 -19 0 -6 -18 13 -43 7 -33 -9 3 -5
0 -12 -6 -16 -7 -4 -9 -3 -6 3 4 6 0 13 -8 16 -10 4 -12 1 -8 -10 5 -13 2 -15
-11 -10 -11 5 -15 3 -10 -5 5 -7 2 -9 -9 -5 -11 4 -14 2 -10 -8 3 -8 10 -12
17 -8 6 3 5 0 -2 -8 -11 -12 -14 -12 -23 1 -9 12 -10 11 -6 -6 4 -17 0 -20
-19 -18 -13 1 -22 -2 -18 -7 3 -5 9 -7 14 -4 5 3 11 1 15 -4 3 -6 -6 -8 -21
-5 -25 5 -26 3 -13 -13 7 -10 9 -15 5 -11 -5 4 -16 2 -24 -5 -13 -10 -14 -9
-7 2 6 10 4 12 -4 7 -7 -5 -10 -14 -7 -21 2 -7 -2 -16 -10 -19 -9 -3 -13 -9
-10 -14 2 -4 -5 -9 -17 -9 -12 -1 -23 -7 -25 -12 -2 -5 -11 -7 -20 -4 -13 4
-12 2 3 -11 11 -10 15 -15 9 -12 -12 6 -84 -40 -84 -54 0 -21 -2 -25 -16 -41
-8 -9 -12 -18 -9 -20 2 -3 -6 -6 -18 -6 -12 -1 -23 -7 -25 -12 -2 -5 -11 -7
-20 -4 -13 4 -12 2 3 -11 11 -9 16 -16 10 -15 -22 3 -49 -3 -37 -8 6 -2 10 -9
7 -13 -3 -5 -12 -7 -20 -3 -10 3 -15 -1 -15 -12 0 -10 5 -13 12 -9 6 4 8 3 4
-4 -3 -6 -15 -9 -26 -7 -11 2 -23 -1 -26 -7 -4 -6 -3 -8 3 -5 6 4 13 1 16 -7
4 -10 0 -12 -14 -9 -11 3 -19 0 -19 -6 0 -7 -4 -9 -10 -6 -6 4 -7 -1 -3 -12 6
-16 5 -16 -10 -4 -21 17 -22 8 -1 -13 14 -15 14 -16 -3 -13 -10 1 -25 7 -33
12 -13 8 -13 7 -1 -8 11 -14 11 -20 1 -32 -7 -8 -16 -13 -20 -10 -5 3 -12 0
-16 -6 -4 -8 -3 -9 4 -5 7 4 12 3 12 -2 0 -6 -7 -13 -16 -16 -9 -3 -12 -11 -8
-18 6 -10 5 -10 -7 -1 -10 8 -19 9 -29 1 -13 -8 -12 -9 2 -5 9 3 19 0 22 -8 3
-10 0 -12 -11 -8 -10 4 -14 2 -10 -4 4 -6 0 -16 -8 -23 -8 -7 -12 -16 -9 -21
3 -5 2 -9 -3 -8 -4 1 -11 0 -15 -1 -5 -1 -14 -3 -20 -4 -7 0 -13 -12 -13 -26
0 -18 -5 -25 -20 -25 -13 0 -19 -6 -17 -17 1 -9 -3 -20 -9 -24 -7 -4 -9 -3 -5
4 3 6 3 13 -2 16 -13 8 -11 -26 2 -44 6 -8 -1 -6 -14 5 -14 11 -22 16 -18 11
4 -5 3 -15 -4 -23 -9 -11 -7 -12 8 -7 18 5 18 5 1 -6 -9 -6 -22 -8 -29 -4 -6
4 -8 3 -4 -4 3 -6 -4 -18 -16 -26 -12 -9 -18 -16 -14 -16 5 0 17 7 27 16 13
12 19 12 25 3 4 -7 3 -10 -3 -6 -5 3 -17 -3 -26 -14 -9 -10 -14 -19 -12 -19 3
0 0 -6 -7 -14 -7 -8 -16 -12 -20 -9 -5 2 -8 -1 -8 -7 0 -6 -5 -8 -12 -4 -6 4
-8 3 -5 -3 4 -6 0 -14 -9 -17 -9 -4 -14 -9 -11 -12 3 -3 16 0 29 6 22 11 22
11 -2 -9 -13 -11 -29 -19 -34 -18 -9 2 -11 -3 -15 -34 0 -6 -8 -9 -16 -6 -8 4
-17 1 -21 -5 -4 -6 -3 -8 4 -4 6 3 13 2 17 -4 3 -5 1 -10 -5 -10 -6 0 -8 -4
-5 -10 3 -5 -1 -10 -9 -10 -17 0 -32 -42 -21 -59 3 -6 0 -9 -8 -5 -8 3 -20 -3
-28 -12 -12 -15 -12 -16 9 -10 22 7 22 7 -3 -20 -13 -14 -22 -30 -20 -35 3 -4
0 -11 -6 -15 -7 -4 -9 -3 -6 3 4 6 0 16 -8 23 -12 10 -13 7 -5 -18 7 -25 5
-30 -6 -25 -8 3 -11 10 -7 17 3 6 2 7 -2 3 -14 -13 -17 -57 -4 -57 7 0 9 -3 6
-6 -4 -4 -13 -2 -20 4 -10 9 -14 8 -14 -3 0 -8 5 -15 11 -16 6 0 3 -4 -7 -8
-10 -4 -17 -10 -15 -13 2 -4 -6 -14 -17 -23 -11 -9 -15 -14 -8 -11 7 4 11 -1
10 -13 -1 -14 -5 -17 -13 -10 -8 7 -15 6 -20 -2 -4 -8 -3 -9 4 -5 16 10 15 -7
0 -23 -11 -11 -10 -13 5 -8 12 4 16 3 11 -4 -3 -6 -14 -9 -24 -6 -11 3 -17 -1
-17 -12 0 -33 -3 -42 -13 -36 -14 8 -13 -8 1 -22 9 -9 6 -11 -12 -7 -17 4 -20
3 -11 -4 11 -7 8 -11 -10 -16 -23 -6 -23 -6 -3 -23 16 -13 17 -15 3 -10 -14 5
-18 1 -18 -16 0 -18 -2 -19 -10 -7 -8 12 -10 11 -10 -7 0 -13 -6 -23 -12 -23
-8 0 -9 -3 -3 -8 17 -12 15 -29 -3 -44 -15 -11 -16 -11 -5 3 7 9 10 19 6 22
-13 14 -20 6 -17 -18 1 -14 -4 -32 -13 -40 -8 -8 -10 -15 -4 -15 6 0 11 -5 11
-11 0 -5 -4 -7 -10 -4 -5 3 -10 -1 -10 -11 0 -9 -8 -23 -17 -30 -17 -13 -17
-14 0 -8 9 3 17 1 17 -5 0 -10 -22 -16 -44 -12 -5 1 -4 -5 4 -13 10 -13 10
-16 0 -16 -9 0 -10 -3 -1 -14 9 -10 7 -17 -6 -27 -16 -13 -17 -12 -4 4 8 9 9
17 3 17 -16 0 -20 -23 -9 -45 9 -17 8 -18 -5 -7 -16 13 -34 2 -21 -12 12 -11
12 -36 0 -29 -7 4 -8 0 -3 -12 5 -14 4 -16 -7 -6 -12 9 -14 6 -11 -19 2 -17
-1 -30 -7 -30 -6 0 -8 -7 -5 -16 4 -11 2 -15 -8 -11 -9 4 -13 0 -11 -11 1 -9
-2 -26 -8 -37 -6 -11 -10 -24 -8 -30 9 -29 9 -45 0 -40 -5 4 -7 10 -4 15 3 5
1 11 -4 14 -5 4 -8 -5 -6 -20 2 -19 -1 -24 -13 -19 -12 4 -13 3 -2 -10 7 -8
17 -12 24 -8 6 4 5 -1 -3 -10 -15 -18 -26 -23 -16 -7 9 15 -1 12 -14 -4 -9
-11 -9 -16 0 -22 8 -5 9 -3 4 6 -5 9 -4 11 4 6 16 -10 3 -29 -16 -22 -8 3 -11
1 -8 -5 4 -5 1 -17 -7 -26 -11 -14 -11 -16 1 -9 10 7 12 3 6 -14 -5 -17 -4
-21 5 -15 9 5 11 4 6 -4 -6 -9 -11 -9 -22 0 -12 10 -13 9 -8 -6 6 -14 4 -16
-6 -10 -9 5 -11 4 -6 -4 4 -6 11 -9 16 -6 5 3 12 0 16 -6 5 -8 3 -9 -6 -4 -10
6 -12 4 -7 -8 4 -12 2 -14 -10 -10 -12 5 -15 2 -10 -9 3 -9 -2 -26 -10 -39
-11 -14 -12 -19 -3 -14 8 5 11 3 8 -6 -3 -8 -12 -13 -19 -11 -8 1 -5 -5 6 -14
20 -16 20 -16 -3 -11 -19 4 -21 3 -11 -9 6 -7 16 -11 23 -7 6 4 5 -1 -3 -10
-15 -19 -26 -23 -15 -5 4 7 3 8 -5 4 -9 -6 -9 -11 1 -24 11 -13 11 -14 -1 -7
-11 6 -13 3 -8 -14 4 -17 2 -21 -9 -17 -9 3 -12 1 -9 -5 4 -5 1 -16 -5 -24
-10 -12 -9 -16 6 -22 17 -6 17 -7 -1 -13 -10 -4 -19 -16 -20 -28 -1 -18 1 -20
13 -9 13 10 14 9 2 -10 -8 -12 -19 -19 -25 -15 -5 3 -4 -2 4 -11 7 -9 10 -17
6 -17 -4 0 -1 -8 6 -17 13 -16 12 -17 -3 -5 -11 9 -18 10 -23 2 -3 -5 -1 -10
4 -10 6 0 11 -5 11 -11 0 -6 -6 -9 -13 -6 -7 3 -13 -3 -13 -13 0 -10 4 -17 7
-14 4 2 10 0 14 -6 3 -5 -1 -10 -9 -10 -8 0 -18 -5 -22 -12 -4 -7 -3 -8 4 -4
7 4 12 2 12 -3 0 -6 -6 -11 -12 -11 -9 0 -8 -4 2 -10 12 -8 12 -10 1 -10 -11
0 -11 -3 0 -17 12 -14 12 -16 0 -8 -11 6 -13 3 -9 -13 3 -11 -1 -31 -10 -43
-8 -12 -10 -19 -4 -15 7 4 10 -1 9 -14 -1 -11 -6 -19 -12 -16 -7 2 -12 -2 -12
-10 0 -8 6 -13 13 -10 8 3 11 0 7 -9 -3 -8 -10 -12 -15 -9 -7 4 -7 0 0 -12 10
-21 5 -47 -8 -39 -5 3 -12 0 -16 -6 -4 -8 -3 -9 4 -5 16 10 15 -7 0 -23 -11
-10 -9 -11 7 -6 17 6 18 5 5 -7 -9 -7 -14 -25 -12 -42 2 -16 -2 -32 -10 -37
-10 -7 -10 -9 2 -10 8 -1 19 -1 23 0 5 1 5 -3 2 -9 -4 -6 -14 -9 -24 -6 -9 4
-5 -3 9 -16 15 -13 18 -19 8 -15 -10 3 -20 2 -23 -3 -4 -6 -1 -10 6 -10 8 0 7
-5 -2 -17 -12 -15 -12 -16 5 -9 20 7 20 7 0 -15 -12 -15 -14 -20 -4 -15 8 4 6
0 -4 -8 -11 -9 -15 -16 -9 -16 17 0 25 -31 12 -46 -6 -7 -9 -33 -8 -58 2 -24
1 -42 -3 -40 -4 2 -9 0 -13 -6 -3 -5 0 -10 7 -10 7 0 13 -11 13 -24 0 -20 -3
-22 -14 -13 -12 10 -12 9 -3 -10 7 -12 17 -23 24 -25 7 -3 5 -7 -6 -11 -11 -5
-15 -3 -10 5 4 7 3 8 -5 4 -6 -4 -9 -12 -5 -17 3 -5 9 -7 14 -4 5 3 12 1 15
-5 4 -6 1 -9 -7 -8 -7 2 -12 -4 -10 -14 2 -10 -2 -27 -8 -37 -7 -14 -7 -22 2
-27 6 -4 8 -3 4 4 -3 6 -3 13 2 16 4 2 8 -6 8 -20 0 -13 -3 -24 -7 -24 -5 0
-6 -9 -4 -20 2 -11 -1 -22 -6 -26 -6 -4 -6 -11 1 -19 7 -8 9 -24 5 -36 -4 -12
-3 -19 1 -16 5 3 9 -14 9 -38 0 -33 -3 -41 -15 -37 -12 4 -13 2 -2 -9 6 -7 12
-19 12 -27 0 -7 -6 -10 -12 -7 -7 4 -5 0 4 -7 15 -13 15 -15 0 -26 -9 -7 -12
-10 -6 -7 15 6 26 -47 13 -60 -7 -7 -8 -4 -4 8 4 9 3 17 -3 17 -12 0 -11 -18
3 -40 5 -8 8 -27 7 -43 -2 -17 2 -26 8 -22 6 3 7 0 4 -9 -3 -9 -11 -13 -18 -9
-7 4 -6 1 2 -9 7 -8 10 -23 6 -32 -4 -11 -1 -16 12 -16 17 0 17 -1 -1 -13 -12
-9 -14 -16 -7 -21 6 -4 8 -14 5 -23 -4 -10 -2 -14 4 -10 5 3 10 0 10 -8 0 -8
-3 -12 -6 -10 -8 4 -6 -93 1 -101 4 -3 4 -13 0 -22 -5 -15 -4 -16 13 -2 17 14
18 13 8 -5 -12 -25 -10 -51 3 -48 6 1 11 -4 11 -12 0 -11 -5 -12 -21 -4 -20
10 -20 9 1 -9 16 -14 19 -22 10 -31 -8 -8 -8 -11 3 -11 7 0 10 -3 7 -7 -4 -3
-2 -12 5 -20 9 -11 7 -12 -7 -7 -15 6 -15 4 -4 -14 11 -17 10 -24 -1 -39 -12
-15 -12 -16 0 -6 23 21 35 15 15 -7 -17 -18 -17 -20 -2 -14 13 5 16 2 11 -10
-3 -9 -11 -13 -18 -9 -6 3 -5 0 2 -8 11 -12 14 -12 22 1 7 11 10 11 10 2 0 -7
-7 -15 -16 -19 -12 -4 -13 -8 -3 -13 6 -5 13 -20 13 -34 1 -14 11 -32 21 -40
19 -14 19 -15 -5 -10 -19 4 -21 3 -11 -4 8 -6 15 -27 16 -47 0 -20 6 -40 14
-44 11 -7 11 -9 0 -14 -9 -3 -7 -6 6 -6 17 -1 17 -3 5 -11 -12 -8 -12 -10 5
-10 11 0 16 -4 10 -8 -5 -4 -11 -17 -11 -29 -1 -16 3 -20 15 -15 14 5 14 4 1
-13 -9 -11 -10 -16 -3 -11 13 7 15 4 16 -36 1 -13 9 -29 19 -36 19 -14 15 -37
-4 -26 -6 4 -8 2 -4 -4 3 -5 3 -12 -1 -15 -5 -2 -3 -2 4 -1 7 2 15 -1 18 -6 4
-6 0 -10 -7 -10 -8 0 -9 -3 -3 -8 16 -11 41 -47 29 -39 -7 4 -15 0 -18 -9 -3
-8 -2 -12 4 -9 6 3 10 1 10 -5 0 -6 5 -8 13 -4 9 6 8 3 -1 -9 -12 -13 -11 -18
6 -33 16 -14 18 -22 11 -42 -7 -18 -5 -31 6 -49 9 -13 13 -29 8 -36 -4 -7 2
-5 12 3 11 9 16 10 11 3 -4 -7 -2 -13 3 -13 6 0 10 -10 8 -22 -1 -14 3 -22 10
-21 7 2 10 -4 7 -12 -4 -8 -10 -15 -16 -15 -5 0 -6 5 -2 12 4 7 3 8 -5 4 -15
-10 -4 -26 17 -26 15 0 15 -2 2 -10 -13 -9 -13 -10 0 -10 9 0 16 -9 17 -21 2
-17 -1 -19 -15 -9 -9 7 -5 1 10 -13 20 -19 24 -27 15 -37 -9 -10 -8 -12 6 -7
10 4 15 3 12 -2 -3 -5 -1 -12 5 -16 5 -3 10 -12 10 -18 0 -7 -4 -6 -10 3 -5 8
-10 11 -10 5 1 -13 26 -46 31 -40 3 2 5 -5 6 -16 1 -12 -3 -17 -9 -13 -7 5 -8
2 -4 -5 5 -7 15 -10 23 -6 14 5 14 3 2 -12 -8 -9 -9 -14 -3 -10 7 4 18 -1 25
-10 8 -9 9 -14 3 -10 -7 4 -14 0 -17 -8 -4 -9 -1 -12 9 -8 10 4 15 0 14 -8 -4
-26 0 -40 9 -35 5 3 12 -1 15 -10 3 -8 2 -12 -4 -9 -6 3 -7 -1 -4 -9 3 -9 10
-13 15 -10 5 3 9 -2 9 -11 0 -10 -5 -13 -12 -9 -7 4 -8 3 -4 -4 4 -6 14 -8 23
-5 10 4 14 2 9 -5 -3 -6 -2 -13 3 -17 6 -3 7 -13 4 -22 -5 -12 -3 -14 8 -8 11
7 11 5 -1 -10 -9 -11 -10 -16 -2 -11 8 4 12 1 12 -10 0 -13 3 -14 14 -5 12 10
13 8 9 -8 -3 -12 -10 -18 -17 -14 -6 3 -3 -3 7 -14 9 -11 14 -23 10 -27 -5 -4
-3 -7 2 -6 21 5 33 -1 39 -16 5 -12 3 -14 -7 -8 -7 5 -4 1 6 -8 11 -10 22 -16
26 -14 4 3 7 -4 7 -14 0 -10 -3 -17 -6 -15 -4 2 -7 -3 -7 -11 0 -8 6 -13 13
-10 8 3 16 0 20 -6 4 -7 3 -8 -4 -4 -7 4 -12 1 -12 -9 0 -9 4 -13 10 -10 5 3
10 -1 10 -10 0 -10 -5 -13 -12 -9 -7 4 -8 3 -4 -4 4 -6 13 -9 22 -5 8 3 14 2
12 -3 -5 -14 28 -55 37 -46 5 4 5 1 1 -6 -4 -7 -11 -10 -15 -8 -4 3 -8 -1 -8
-9 0 -8 4 -12 9 -9 4 3 8 0 8 -6 0 -6 5 -8 12 -4 8 5 9 2 5 -10 -5 -13 -3 -17
7 -13 11 4 13 1 9 -10 -5 -12 -2 -15 9 -11 11 5 14 0 10 -19 -4 -23 -2 -24 19
-18 22 7 23 7 5 -11 -12 -11 -15 -19 -7 -22 6 -2 8 -9 4 -15 -3 -7 3 -4 14 6
16 14 20 14 20 2 0 -8 -4 -12 -9 -9 -4 3 -8 -2 -8 -10 0 -10 9 -16 22 -16 21
0 21 -1 3 -13 -14 -11 -15 -16 -5 -22 9 -5 11 -4 6 3 -4 7 -1 12 8 12 10 0 13
-6 9 -17 -5 -12 -3 -14 8 -8 12 8 12 6 0 -8 -8 -10 -11 -20 -7 -24 3 -3 6 -1
6 6 0 8 7 6 18 -6 9 -10 13 -12 7 -3 -9 13 -8 13 8 1 14 -11 15 -17 5 -28 -10
-12 -9 -17 5 -25 10 -5 15 -13 13 -17 -3 -4 2 -8 10 -8 11 0 8 7 -8 26 -13 14
-16 20 -7 13 9 -6 20 -8 24 -4 5 4 5 2 1 -5 -3 -6 -2 -14 4 -18 7 -4 6 -13 -1
-28 -7 -12 -8 -19 -4 -15 4 4 14 0 22 -10 13 -15 13 -14 3 8 -11 24 -10 24 5
5 8 -11 13 -26 10 -34 -4 -11 -3 -11 9 -2 11 9 16 9 22 0 4 -7 3 -10 -2 -7 -5
3 -15 -1 -23 -9 -12 -13 -11 -14 9 -8 19 6 22 4 17 -9 -5 -12 0 -19 16 -25 12
-5 25 -7 29 -4 4 2 5 -3 1 -12 -5 -13 -7 -14 -14 -3 -7 10 -9 9 -9 -4 0 -16
20 -23 51 -20 3 1 6 -6 6 -14 0 -10 -4 -11 -11 -4 -5 5 -15 10 -21 10 -5 0 -2
-5 8 -11 9 -6 15 -14 12 -19 -3 -4 5 -6 17 -2 21 5 22 4 8 -13 -8 -10 -10 -16
-4 -12 7 4 14 0 18 -8 3 -8 12 -15 21 -15 14 0 19 -11 16 -37 -1 -7 3 -13 9
-13 5 0 10 -6 10 -14 0 -8 7 -17 16 -20 9 -3 12 -11 8 -18 -5 -8 0 -7 11 2 10
8 16 10 12 3 -4 -6 -1 -14 5 -16 10 -4 9 -8 -2 -16 -8 -6 -10 -11 -5 -12 29
-2 48 -9 71 -24 20 -13 23 -19 14 -30 -8 -10 -3 -18 22 -36 18 -12 27 -16 20
-9 -19 22 -14 32 6 13 10 -10 17 -24 14 -30 -4 -12 10 -18 32 -14 5 1 3 -5 -4
-14 -7 -8 -10 -18 -6 -22 3 -3 6 -1 6 5 0 7 5 12 11 12 5 0 7 -4 4 -10 -3 -5
2 -10 12 -10 15 0 16 -2 3 -10 -12 -8 -11 -10 7 -10 12 0 25 -4 28 -10 3 -6
-1 -7 -12 -4 -10 3 -2 -4 17 -15 19 -11 29 -20 23 -21 -7 0 -13 -4 -13 -9 0
-4 11 -7 26 -5 20 2 23 0 14 -11 -7 -8 -7 -15 -1 -19 5 -4 15 2 21 11 8 15 9
12 4 -11 -4 -18 -3 -27 3 -23 6 4 19 0 29 -8 19 -15 18 -15 -1 -9 -12 3 -9 -1
8 -11 17 -10 25 -21 20 -28 -4 -7 2 -5 12 3 17 14 18 14 6 -8 -12 -22 -11 -23
9 -12 20 11 21 10 10 -9 -6 -12 -7 -21 -3 -20 4 1 17 1 28 0 17 -1 18 -3 5
-11 -13 -8 -12 -10 3 -10 9 0 16 -6 15 -13 -2 -7 5 -11 16 -9 12 2 15 -1 11
-8 -6 -9 -2 -9 12 -1 18 9 20 7 17 -21 -3 -26 -2 -29 11 -18 8 7 12 17 8 23
-3 6 -1 7 5 3 6 -3 9 -15 7 -26 -4 -23 20 -39 50 -34 19 3 19 2 2 -10 -16 -12
-16 -14 -2 -20 9 -3 13 -2 10 4 -3 6 1 10 9 10 10 0 13 -6 10 -15 -5 -11 -2
-14 12 -9 11 4 16 4 12 -1 -11 -12 10 -45 25 -39 7 2 21 -3 32 -12 11 -8 14
-13 8 -9 -7 3 -13 4 -13 1 0 -2 20 -15 45 -27 25 -12 45 -28 45 -35 0 -6 8
-18 17 -25 11 -10 14 -10 9 -1 -4 6 -2 12 3 12 6 0 11 -8 11 -17 1 -16 2 -16
15 1 17 23 20 14 5 -14 -8 -16 -8 -18 5 -14 8 4 15 11 15 17 0 6 3 7 6 4 4 -4
1 -14 -7 -24 -8 -9 -9 -14 -3 -10 6 4 20 -3 30 -14 17 -18 19 -19 30 -4 8 10
14 12 19 6 3 -6 1 -11 -4 -11 -6 0 -11 -7 -11 -16 0 -14 3 -14 15 -4 13 11 14
10 8 -6 -6 -16 -4 -17 9 -6 13 10 18 9 29 -5 13 -16 12 -17 -3 -4 -11 8 -18 9
-18 3 0 -6 9 -14 20 -17 11 -3 20 -11 20 -17 0 -7 5 -6 14 1 10 8 16 9 21 1 3
-6 11 -7 17 -4 6 4 5 -3 -2 -16 -7 -12 -8 -20 -2 -16 5 3 15 0 21 -8 7 -8 21
-12 34 -9 18 5 20 3 10 -8 -7 -7 -13 -18 -13 -23 0 -6 5 -4 10 4 8 12 12 13
19 2 4 -8 11 -13 15 -13 20 3 26 0 20 -11 -6 -10 -4 -10 8 0 13 10 18 10 24 1
4 -8 3 -9 -4 -5 -8 5 -10 1 -6 -9 5 -11 10 -13 17 -6 7 7 16 3 29 -11 15 -18
22 -20 37 -11 14 9 18 8 18 -3 0 -7 -4 -11 -8 -8 -4 2 -10 0 -13 -5 -3 -5 8
-8 24 -7 17 1 30 -2 30 -7 0 -4 5 -5 12 -1 7 4 8 3 4 -4 -4 -7 -1 -12 8 -12 9
0 16 -5 16 -11 0 -5 4 -7 10 -4 5 3 10 1 10 -4 0 -6 8 -11 18 -11 14 0 15 2 2
10 -8 5 -10 10 -5 9 6 0 26 -14 45 -31 28 -25 29 -28 8 -14 -16 9 -28 13 -28
8 0 -16 46 -32 59 -19 8 8 9 5 7 -10 -4 -19 2 -23 47 -24 10 0 15 -5 11 -11
-4 -7 -2 -8 5 -4 6 4 14 0 17 -9 5 -13 9 -14 14 -4 6 9 12 9 24 -4 17 -17 50
-12 39 6 -4 6 -1 7 6 2 9 -5 10 -10 2 -18 -6 -6 -11 -16 -11 -21 0 -6 4 -5 9
2 7 11 10 11 22 0 31 -29 53 -44 45 -29 -6 9 -5 12 5 9 8 -3 13 -13 11 -23 -3
-14 -1 -15 11 -4 12 11 12 18 4 29 -7 8 -2 6 11 -4 22 -19 30 -32 14 -22 -5 3
-9 -1 -9 -9 0 -8 4 -12 9 -9 5 3 15 0 23 -6 8 -7 15 -9 15 -5 0 4 8 1 17 -6
15 -12 16 -12 10 6 -6 16 -3 15 13 -5 17 -21 21 -23 30 -10 9 13 13 11 29 -10
17 -21 21 -22 37 -10 15 13 16 13 9 1 -6 -11 -4 -13 10 -7 16 6 16 4 4 -11
-10 -12 -10 -15 -1 -9 7 4 19 3 27 -4 10 -8 15 -8 21 1 4 7 3 9 -4 5 -6 -3
-13 -2 -16 3 -4 5 2 8 11 6 10 -1 17 -9 16 -16 -4 -19 48 -24 59 -7 6 9 8 8 6
-4 -2 -9 2 -17 7 -18 6 -1 19 -9 29 -18 11 -9 16 -12 13 -6 -4 7 0 14 8 17 10
4 12 1 8 -11 -6 -15 -5 -16 12 -2 17 13 18 13 13 0 -5 -13 1 -15 30 -12 24 3
33 1 28 -7 -5 -7 1 -11 14 -11 14 0 19 4 14 13 -6 9 -5 9 8 0 8 -7 18 -10 22
-6 4 4 4 -1 0 -12 -7 -18 -6 -18 9 -6 15 12 17 11 18 -5 0 -18 1 -18 9 1 8 19
9 19 9 -3 1 -22 2 -22 18 -6 16 15 18 15 40 -10 17 -20 23 -23 23 -11 0 9 5
13 10 10 6 -4 8 -10 5 -15 -3 -5 10 -7 29 -4 19 2 38 0 41 -6 3 -5 0 -7 -8 -4
-8 3 -17 1 -21 -4 -6 -10 24 -9 42 2 6 4 12 3 12 -3 0 -6 7 -7 17 -4 10 4 14
2 9 -5 -3 -6 -1 -14 5 -18 8 -4 9 -3 5 4 -4 7 -2 12 4 12 6 0 8 4 5 10 -3 6 1
7 9 4 9 -3 16 -10 16 -16 0 -5 -4 -6 -10 -3 -5 3 -10 2 -10 -4 0 -13 40 -10
40 4 0 5 5 2 11 -7 6 -11 16 -15 26 -11 12 5 14 3 8 -8 -7 -12 -6 -12 9 1 16
12 19 12 27 -2 6 -10 17 -14 31 -10 16 4 19 2 14 -9 -4 -8 0 -5 8 5 14 17 20
15 17 -6 -1 -9 27 -4 36 7 4 4 2 5 -6 0 -10 -5 -12 -4 -7 4 10 16 29 2 21 -17
-5 -14 -4 -14 13 1 14 13 21 14 30 5 9 -9 12 -9 12 2 0 7 3 10 6 7 4 -4 2 -13
-5 -20 -9 -12 -7 -14 13 -12 14 2 29 6 35 9 5 4 13 1 17 -5 5 -8 3 -9 -6 -4
-8 5 -11 4 -6 -3 4 -6 14 -8 23 -5 11 4 14 3 9 -5 -5 -8 -2 -10 9 -6 14 6 14
8 -2 21 -17 13 -16 13 3 4 12 -6 24 -7 28 -3 4 3 4 -2 0 -13 -7 -20 -7 -20 14
-1 20 17 22 17 28 2 5 -14 9 -14 22 -4 12 10 14 10 8 0 -9 -16 6 -16 23 1 11
10 13 9 7 -1 -8 -13 19 -12 42 2 8 5 18 3 25 -4 9 -10 9 -11 0 -6 -6 3 -14 2
-17 -3 -8 -12 37 -8 46 4 4 6 8 1 8 -10 0 -17 2 -17 10 -5 5 8 10 11 10 5 0
-5 5 -3 10 5 8 13 10 12 10 -2 0 -10 5 -18 11 -18 5 0 7 6 3 12 -4 7 2 5 13
-5 19 -17 22 -17 37 -2 15 15 16 15 17 -7 1 -19 2 -20 6 -4 4 15 7 16 14 5 7
-11 9 -10 10 6 l0 20 9 -20 c5 -11 9 -14 9 -6 1 11 4 11 16 1 8 -7 15 -8 15
-3 0 10 41 10 57 0 5 -3 15 -2 23 3 9 5 20 4 28 -3 17 -14 44 -19 36 -6 -3 5
-10 7 -15 4 -5 -4 -9 -2 -9 3 0 5 13 9 30 8 18 -1 30 -6 30 -14 0 -10 4 -9 16
2 18 18 28 21 19 6 -4 -7 3 -8 21 -4 21 6 25 4 19 -7 -7 -11 -6 -12 6 -2 8 6
30 11 49 9 19 -1 47 1 61 5 15 4 32 3 39 -1 7 -4 26 -4 41 0 18 6 31 5 35 -2
5 -7 2 -8 -6 -3 -9 6 -11 4 -5 -5 6 -10 10 -10 20 3 9 12 14 14 23 5 9 -9 12
-9 12 1 0 7 6 11 13 8 8 -3 20 -1 28 3 9 6 21 3 33 -8 11 -9 16 -11 12 -5 -5
9 2 12 25 9 24 -3 33 1 36 15 3 10 9 16 14 14 4 -3 6 -13 3 -23 -5 -13 -4 -14
4 -3 6 8 19 12 31 8 12 -3 19 -1 16 3 -3 5 -1 11 5 15 5 3 10 1 10 -4 0 -6 5
-11 11 -11 5 0 7 6 3 13 -6 9 -4 9 7 1 19 -14 102 -11 107 4 3 9 9 9 23 2 15
-9 19 -7 20 7 0 11 3 13 6 6 7 -18 16 -16 41 7 23 22 31 14 10 -9 -11 -11 -9
-11 12 -1 14 7 28 18 32 24 5 7 8 3 9 -9 0 -11 3 -15 5 -8 3 7 11 10 18 7 8
-3 16 1 19 10 4 11 14 12 41 6 20 -4 34 -4 31 0 -3 4 2 11 11 14 10 4 13 2 8
-7 -5 -8 -2 -8 9 2 9 7 14 18 10 24 -3 6 -1 7 5 3 6 -4 9 -13 5 -21 -3 -8 0
-15 6 -15 6 0 11 6 11 14 0 8 5 18 12 22 6 4 8 3 5 -3 -4 -6 2 -13 14 -16 16
-4 18 -3 9 8 -9 10 -4 13 24 11 19 -1 32 2 29 7 -2 4 7 6 22 3 20 -4 28 0 35
17 8 20 15 9 11 -16 -1 -4 9 -1 22 8 13 8 27 12 30 8 4 -3 7 -1 7 6 0 9 8 11
21 8 16 -4 18 -3 9 8 -8 10 -7 13 7 11 10 0 24 -8 31 -16 10 -13 11 -13 6 2
-4 13 0 16 20 14 17 -2 26 2 26 10 0 8 5 14 11 14 5 0 8 -4 4 -9 -3 -5 -1 -13
5 -16 6 -4 9 -1 8 7 -2 7 7 14 20 16 12 2 20 8 17 13 -4 5 -1 9 4 9 6 0 11 -6
11 -12 0 -9 3 -9 9 1 5 8 16 11 25 8 8 -3 21 0 29 7 7 7 29 13 50 12 33 -1 36
0 20 13 -16 12 -16 12 6 6 20 -6 23 -5 17 11 -7 17 -6 17 13 0 12 -11 21 -14
26 -6 3 5 11 7 17 4 7 -4 8 -2 4 4 -4 7 -2 12 4 12 6 0 8 4 5 10 -4 6 1 7 11
3 13 -5 15 -3 9 7 -6 9 -4 11 5 5 7 -4 16 -2 22 6 8 11 9 10 4 -3 -3 -10 0
-20 7 -24 7 -4 9 -4 5 1 -10 11 17 35 41 35 13 0 21 7 22 18 0 14 2 14 7 2 4
-8 15 -16 24 -16 10 -1 15 2 12 7 -3 5 0 9 6 9 6 0 8 5 4 13 -5 7 0 6 11 -3
15 -12 17 -12 10 -1 -6 11 -4 13 9 8 9 -4 14 -3 11 2 -3 5 -1 12 5 16 5 3 10
1 10 -4 0 -6 5 -11 11 -11 5 0 7 4 4 10 -3 5 3 10 14 10 12 0 21 7 21 15 0 12
4 14 19 5 17 -9 19 -7 16 10 -3 14 0 18 8 13 22 -14 36 -11 30 5 -5 11 -2 14
10 9 11 -4 26 3 42 21 14 15 25 21 25 14 0 -6 -4 -12 -10 -12 -5 0 -10 -4 -10
-8 0 -5 7 -9 14 -9 8 0 14 5 13 11 -1 6 4 10 11 8 8 -1 16 7 19 18 3 11 9 17
14 15 4 -3 5 -13 2 -23 -4 -13 -2 -13 10 3 9 11 17 16 17 11 0 -5 9 -1 19 8
11 10 24 15 30 11 6 -3 8 0 5 8 -3 8 0 18 7 23 8 5 10 3 5 -7 -4 -8 -1 -6 7 3
10 13 17 14 25 6 8 -8 9 -5 6 9 -3 12 0 24 7 29 8 5 11 3 7 -8 -4 -8 -1 -15 7
-15 7 0 12 8 10 17 -2 9 3 17 10 17 7 0 11 -7 8 -16 -2 -9 2 -7 9 5 7 12 19
19 28 16 12 -4 13 -2 3 9 -10 12 -8 15 8 16 12 1 17 -3 13 -9 -5 -7 -2 -8 5
-4 7 5 10 14 7 21 -5 14 11 15 31 2 9 -6 11 -3 6 10 -6 16 -5 16 10 4 15 -12
17 -12 11 4 -5 13 -4 16 4 11 7 -4 12 -2 12 5 0 8 3 9 14 0 11 -9 13 -7 11 12
-2 18 2 23 20 23 14 0 21 -5 18 -10 -3 -6 8 4 25 23 19 22 36 32 46 28 10 -4
13 -1 9 9 -3 9 1 14 12 14 10 0 13 -5 9 -12 -4 -7 -3 -8 5 -4 6 4 9 12 6 17
-6 8 8 13 27 10 4 0 12 9 18 22 11 21 10 21 -4 3 -9 -11 -16 -15 -16 -10 0 20
23 34 37 22 11 -9 12 -7 6 7 -5 15 -3 17 11 12 13 -5 19 -1 23 12 3 11 11 17
18 15 7 -3 22 4 33 16 13 14 25 19 34 14 10 -6 10 -4 -1 9 -8 10 -11 20 -7 24
3 3 6 1 6 -5 0 -7 11 -11 25 -10 13 1 22 4 20 7 -3 2 1 11 7 20 9 11 6 10 -9
-2 -16 -14 -23 -15 -29 -6 -4 7 -3 10 4 5 6 -3 17 3 25 14 12 18 15 18 20 5 4
-8 12 -15 19 -15 8 0 9 3 3 8 -5 4 -11 13 -13 21 -3 12 0 12 12 2 13 -11 15
-10 11 7 -3 16 1 19 17 14 14 -3 19 -1 14 6 -4 7 -1 12 9 12 10 0 13 5 9 12
-5 9 -2 8 9 -1 15 -12 17 -12 11 2 -4 12 -1 15 13 12 11 -2 26 1 34 7 11 8 11
9 -3 4 -10 -3 -20 -1 -23 5 -4 5 -11 6 -17 3 -6 -4 -8 -3 -5 3 3 5 19 9 36 8
23 -1 29 2 26 16 -2 10 1 22 7 25 7 4 8 2 4 -4 -10 -16 27 -10 48 7 11 9 13
17 7 25 -7 8 -4 12 10 13 12 1 17 -2 12 -10 -3 -7 3 -4 14 6 11 9 23 14 28 10
4 -5 5 -2 1 5 -4 7 -1 15 9 18 12 5 13 9 4 20 -10 12 -8 13 6 8 14 -6 16 -4
10 7 -7 11 -5 11 10 -1 17 -14 18 -14 7 7 -10 19 -9 20 8 16 12 -3 20 0 20 6
0 7 -4 9 -10 6 -16 -10 -11 1 7 16 11 10 14 10 9 2 -10 -18 5 -16 29 4 l20 16
-20 -7 c-15 -5 -17 -4 -9 4 6 6 20 12 32 13 11 0 18 5 16 9 -3 5 -9 6 -13 4
-4 -3 -8 1 -8 8 0 8 7 12 15 8 10 -3 13 -1 8 6 -3 6 -2 13 3 16 5 4 13 1 17
-5 5 -8 3 -9 -6 -4 -9 5 -11 4 -6 -4 13 -21 27 -1 15 22 -9 18 -9 20 2 10 18
-17 29 -16 29 3 0 9 -5 13 -12 9 -7 -4 -3 2 9 13 12 11 19 23 15 27 -4 4 3 2
16 -4 12 -7 22 -8 21 -4 -3 20 2 34 11 28 10 -6 40 17 40 31 0 5 -5 3 -12 -4
-15 -15 -28 -15 -28 -1 0 5 4 8 9 5 5 -3 14 1 21 9 10 12 15 13 28 3 12 -11
12 -7 -2 22 -17 34 -17 34 1 12 18 -22 18 -22 31 -2 7 12 17 18 22 15 6 -4 7
1 3 11 -4 11 -2 15 4 11 6 -4 9 3 7 18 -1 14 2 23 7 19 14 -8 50 6 43 18 -4 6
-9 5 -15 -3 -4 -7 -10 -11 -14 -8 -3 3 5 14 17 25 12 10 18 13 14 7 -4 -8 -1
-13 8 -13 9 0 13 6 10 13 -6 17 33 67 51 67 8 0 19 9 25 20 6 11 16 17 22 14
7 -4 8 -3 4 4 -4 6 -14 9 -24 6 -12 -4 -12 -2 3 7 11 8 23 14 28 15 4 1 9 2
12 3 3 0 0 11 -6 24 -11 19 -10 20 3 10 18 -15 32 -5 17 13 -7 8 -6 14 2 20 8
4 9 3 5 -4 -4 -7 -3 -12 2 -12 5 0 12 10 15 21 4 15 11 20 22 15 9 -3 14 -2
10 3 -3 5 1 12 7 14 10 4 10 6 1 6 -7 1 -13 6 -13 12 0 5 5 7 10 4 6 -3 10 -1
10 6 0 8 4 8 13 1 10 -8 13 -6 13 7 0 10 -6 17 -12 14 -7 -2 -15 0 -19 6 -3 6
0 9 8 5 8 -3 18 0 22 5 3 6 10 9 15 6 4 -3 13 2 20 10 7 8 9 15 5 15 -4 0 -2
7 5 15 7 8 17 12 24 8 6 -3 8 -3 4 2 -4 4 -2 15 5 23 10 13 9 14 -3 7 -8 -5
-21 -17 -28 -27 -7 -10 -17 -18 -22 -18 -4 0 4 14 18 30 15 17 32 30 38 30 6
0 18 8 25 17 12 14 12 16 0 9 -9 -6 -12 -5 -9 5 3 8 10 13 16 12 7 -2 9 4 5
15 -6 14 -4 15 9 4 13 -10 15 -9 11 11 -3 15 2 29 14 38 16 13 17 12 5 -3 -10
-12 -10 -18 -1 -24 7 -4 9 -3 5 4 -3 6 -2 13 4 17 6 4 8 11 5 16 -4 5 7 21 22
36 15 14 22 23 16 19 -7 -4 -13 -3 -13 3 0 5 5 11 11 13 5 2 12 12 14 23 2 11
4 21 4 23 1 1 11 -3 24 -9 18 -9 20 -9 10 1 -9 10 -7 17 13 33 14 11 23 26 20
33 -3 8 -2 14 3 14 5 0 7 11 6 25 -2 13 4 30 13 37 15 12 16 11 3 -4 -7 -10
-9 -18 -3 -18 12 0 22 24 22 53 0 18 2 19 10 7 8 -12 10 -13 10 -1 0 8 8 24
18 35 16 20 16 20 0 7 -12 -9 -18 -10 -18 -2 0 6 11 16 25 21 22 8 24 12 15
36 -10 25 -9 26 6 13 16 -13 17 -11 12 13 -4 21 -2 26 14 23 15 -3 17 -1 7 17
-8 15 -8 19 0 14 19 -12 32 3 21 24 -8 16 -7 18 9 15 12 -2 18 2 17 13 0 9 5
16 12 14 8 -1 11 2 7 8 -4 6 1 23 11 38 15 23 15 25 1 14 -14 -12 -16 -11 -14
6 1 14 7 18 22 14 20 -4 20 -4 1 10 -19 15 -19 16 1 26 11 6 23 8 27 4 4 -3 4
2 0 13 -5 11 -9 14 -12 7 -2 -7 -8 -12 -14 -12 -6 0 -5 6 2 15 7 9 19 14 27
11 7 -3 13 -1 13 4 0 6 -7 10 -16 10 -8 0 -12 5 -9 10 4 6 10 8 15 5 5 -3 11
-1 15 4 3 5 -3 15 -12 21 -16 10 -16 10 2 6 17 -5 20 -1 20 29 0 19 5 35 10
34 10 -1 10 -2 0 -34 -5 -16 -4 -17 4 -5 5 9 11 22 13 30 2 8 7 18 11 21 4 3
10 19 13 34 3 16 10 35 16 42 7 9 7 13 0 13 -6 0 -16 -8 -22 -18 -8 -11 -10
-12 -7 -2 2 8 13 20 25 26 18 9 19 11 4 20 -13 9 -13 12 -2 19 9 5 11 4 6 -3
-4 -7 -1 -12 9 -12 13 0 14 4 4 22 -9 18 -9 20 4 15 11 -4 15 -1 12 14 -2 10
-7 25 -11 32 -5 8 -2 8 9 -2 14 -11 17 -11 18 0 1 8 1 18 0 23 -1 4 3 14 10
22 6 8 9 20 6 28 -4 11 -1 13 11 9 15 -6 16 -5 2 12 -12 15 -12 17 -1 10 11
-6 13 -4 8 8 -3 10 -3 17 2 17 5 0 7 12 5 26 -2 18 2 24 11 20 9 -3 12 0 8 10
-3 7 0 14 7 14 6 0 8 5 4 11 -5 8 -9 8 -14 -1 -5 -8 -10 -9 -14 -2 -3 6 3 13
14 17 16 5 18 10 10 25 -8 15 -6 21 10 30 16 8 18 15 10 35 -6 16 -6 27 2 31
6 4 8 3 5 -3 -3 -5 0 -10 8 -10 13 0 13 4 -1 26 -9 14 -13 23 -9 19 15 -14 35
13 25 32 -7 13 -6 20 5 24 9 3 12 12 8 22 -5 13 -3 15 7 9 9 -6 11 -4 5 6 -13
20 -13 49 -2 56 6 4 7 1 2 -7 -5 -9 -4 -11 4 -6 9 6 9 11 -1 24 -10 13 -10 14
0 8 9 -6 11 -1 8 19 -4 20 -2 24 7 16 9 -7 13 -5 13 10 0 13 -5 18 -16 14 -12
-5 -13 -4 -2 7 7 7 17 13 23 13 5 0 8 4 7 10 -2 5 -10 9 -18 7 -12 -2 -11 0 2
11 14 11 15 16 5 26 -9 10 -8 11 5 6 12 -5 17 -2 16 12 0 10 3 27 7 37 7 15 5
17 -6 11 -9 -5 -8 -1 3 11 11 13 14 24 8 34 -5 8 -5 21 1 32 6 10 7 23 4 28
-3 6 1 10 9 10 8 0 17 4 20 9 4 5 -4 7 -16 4 -14 -3 -19 -1 -12 4 19 15 23 52
6 62 -13 7 -12 10 7 16 11 3 19 11 16 16 -3 5 -1 18 5 29 7 13 7 20 0 20 -5 0
-10 -5 -10 -12 0 -6 -3 -8 -7 -4 -5 4 1 14 11 22 19 13 10 20 -19 14 -5 -1 -6
2 -2 7 5 4 14 8 20 8 5 0 12 6 15 14 3 8 0 11 -6 7 -11 -7 -11 12 1 31 4 6 1
14 -5 16 -10 4 -10 6 0 6 6 1 12 9 12 19 0 15 -2 15 -11 2 -9 -12 -10 -12 -5
3 3 10 6 21 6 23 0 3 4 3 8 0 4 -2 8 4 8 14 0 10 -4 16 -9 13 -5 -3 -4 3 2 14
7 14 7 23 -2 33 -10 10 -7 10 13 0 25 -13 25 -13 7 8 -14 15 -15 22 -6 28 8 4
10 3 5 -4 -11 -18 0 -14 15 5 8 9 9 14 3 10 -7 -4 -18 1 -25 10 -10 12 -10 14
-1 9 7 -4 12 -2 12 4 0 6 4 8 10 5 7 -4 7 3 0 20 -13 35 -13 35 8 29 10 -4 13
-3 6 3 -12 8 -12 48 -1 59 4 4 2 13 -4 21 -6 7 -8 13 -3 13 4 0 -1 7 -12 15
-11 9 -13 13 -4 10 11 -4 15 2 16 20 1 16 -2 23 -10 18 -6 -3 -3 3 8 15 17 20
18 22 2 28 -14 5 -15 9 -4 15 10 7 10 9 1 9 -7 0 -13 5 -13 11 0 5 5 7 10 4 6
-3 10 1 10 10 0 10 -5 13 -12 9 -9 -5 -9 -2 1 9 9 11 10 17 2 17 -6 0 -11 5
-11 11 0 5 5 7 11 3 6 -4 9 1 8 12 -2 11 0 25 4 32 5 7 2 15 -8 18 -13 6 -14
8 -3 15 10 7 10 9 1 9 -7 0 -13 5 -13 11 0 5 5 7 10 4 6 -3 10 1 10 10 0 10
-5 13 -12 9 -9 -5 -9 -2 1 9 10 13 10 17 1 17 -10 0 -10 3 0 15 7 8 8 15 3 15
-5 0 -10 7 -10 15 0 8 4 12 8 9 4 -2 7 5 6 16 -1 11 -4 20 -7 20 -4 0 -6 10
-4 23 1 12 3 22 4 22 1 0 3 8 5 18 2 10 -1 14 -8 10 -7 -4 -8 0 -4 12 4 9 2
24 -4 31 -8 10 -8 14 -1 14 6 0 9 7 6 15 -4 8 -11 12 -18 8 -6 -4 -6 0 2 9 10
12 10 18 2 23 -7 4 -10 20 -8 36 3 16 0 29 -5 29 -5 0 -3 8 4 17 8 9 9 14 3
10 -7 -4 -15 0 -18 9 -9 24 -7 31 4 14 8 -13 10 -12 10 4 0 10 -8 25 -17 32
-17 13 -17 14 1 8 16 -6 17 -5 6 16 -8 15 -8 20 -1 16 6 -4 11 -2 11 3 0 11
-15 15 -35 11 -5 -1 -1 8 9 19 12 13 14 21 7 21 -8 0 -7 5 3 16 20 19 20 21 1
21 -8 0 -11 -5 -8 -11 3 -6 2 -7 -2 -3 -12 10 -15 38 -4 31 13 -8 11 10 -3 25
-10 11 -10 13 0 7 6 -4 12 -2 12 3 0 6 -5 11 -11 11 -8 0 -8 5 1 15 10 12 9
16 -6 22 -16 6 -16 7 2 14 13 5 15 8 4 8 -9 1 -16 10 -17 21 -1 13 3 18 10 14
7 -3 1 5 -13 17 -17 15 -19 20 -7 16 9 -4 17 -2 17 3 0 6 -4 10 -10 10 -5 0
-10 7 -10 16 0 9 5 12 13 8 9 -6 9 -5 0 8 -7 8 -9 19 -5 23 4 5 1 5 -6 1 -7
-4 -9 -12 -6 -18 4 -7 2 -8 -5 -4 -6 4 -8 12 -5 18 4 6 0 15 -7 20 -10 6 -6 7
11 3 21 -5 22 -4 8 5 -20 12 -25 35 -5 24 9 -6 9 -5 0 8 -7 8 -9 19 -5 23 4 5
1 4 -7 0 -11 -6 -13 -4 -8 8 4 11 1 17 -7 17 -9 0 -12 7 -9 20 3 11 0 20 -6
20 -6 0 -11 5 -11 11 0 5 4 8 8 5 4 -2 8 8 7 24 0 15 -4 26 -8 23 -5 -3 -6
-12 -2 -22 5 -12 3 -13 -5 -5 -9 9 -9 17 0 34 7 12 8 20 3 17 -4 -3 -15 2 -23
11 -13 14 -12 15 3 9 9 -3 17 -2 17 3 0 6 -6 10 -12 10 -9 0 -8 4 2 10 12 8
12 10 1 10 -8 0 -11 3 -8 7 4 3 0 15 -9 25 -14 14 -14 20 -4 33 12 15 11 16
-12 19 -6 0 -13 7 -16 14 -2 8 2 10 15 5 16 -6 16 -5 5 10 -8 8 -19 15 -25 13
-7 -1 -9 -1 -4 1 4 3 7 11 7 19 0 9 -4 13 -8 10 -10 -6 -9 24 1 41 4 6 2 15
-4 19 -8 4 -9 3 -5 -4 11 -18 0 -14 -15 5 -8 9 -9 14 -3 10 7 -4 14 2 17 14 5
17 3 18 -11 7 -12 -10 -14 -10 -8 0 4 7 2 12 -6 12 -8 0 -9 3 -3 8 14 10 11
68 -3 65 -7 -2 -12 4 -12 12 0 8 -4 15 -9 15 -5 0 -12 7 -15 16 -3 8 -2 13 3
10 5 -3 11 0 14 8 4 10 -1 12 -16 9 -14 -3 -18 -2 -10 4 15 11 11 42 -7 53 -7
5 -15 18 -17 31 -2 12 -9 29 -16 37 -6 8 -11 24 -9 34 2 11 -4 25 -14 32 -23
18 -28 46 -6 39 10 -3 5 4 -10 14 -22 16 -25 22 -15 33 10 10 9 11 -1 5 -10
-5 -13 -1 -10 16 2 16 -1 23 -11 21 -9 -2 -12 4 -8 18 3 13 0 20 -9 20 -8 0
-14 5 -14 11 0 5 5 7 12 3 7 -4 8 -3 4 5 -6 9 -11 9 -22 0 -12 -10 -13 -9 -8
5 3 9 11 16 18 17 6 0 0 5 -13 10 -19 8 -21 12 -11 24 11 13 10 14 -2 10 -9
-4 -18 0 -21 9 -4 10 -1 13 9 9 10 -4 12 0 8 10 -3 9 -11 14 -18 11 -7 -3 -13
2 -13 10 0 8 3 13 7 11 4 -2 7 3 7 12 0 9 -9 18 -19 21 -11 2 -17 10 -14 17 8
21 -11 40 -26 27 -11 -8 -14 -7 -14 8 0 10 4 16 8 14 4 -3 8 0 8 7 0 6 -8 9
-20 6 -18 -5 -18 -4 -2 22 16 25 16 25 -1 12 -15 -12 -17 -11 -17 3 0 11 -4
14 -12 10 -8 -5 -7 0 2 11 9 11 10 16 3 11 -8 -4 -13 -1 -13 9 0 9 -4 14 -9
10 -5 -3 -13 0 -17 6 -4 8 -3 9 4 5 7 -4 12 -2 12 4 0 6 6 8 13 4 7 -4 9 -3 4
2 -5 5 -12 9 -15 9 -4 0 -18 11 -31 24 -17 17 -19 22 -8 18 15 -6 16 -3 7 13
-6 11 -13 20 -16 20 -3 0 -2 -5 2 -12 4 -7 3 -8 -5 -4 -9 6 -9 11 0 22 10 12
9 13 -7 7 -17 -6 -18 -5 -4 12 14 17 13 18 -2 12 -10 -3 -20 -1 -24 5 -4 7 -3
8 4 4 19 -11 14 5 -5 20 -17 13 -17 14 2 9 16 -5 16 -3 -2 6 -13 7 -23 18 -23
26 0 7 -5 13 -11 13 -5 0 -7 -6 -3 -12 4 -7 3 -9 -1 -5 -14 12 -15 38 -2 31 7
-3 4 1 -5 9 -10 8 -15 16 -13 19 3 3 -5 13 -17 24 -18 15 -20 16 -9 2 7 -10 9
-18 3 -18 -16 0 -22 26 -9 40 9 10 9 11 0 6 -7 -4 -13 -2 -13 3 0 6 -6 11 -14
11 -8 0 -17 7 -20 16 -3 8 -2 12 4 9 15 -9 12 5 -5 21 -8 9 -21 12 -27 9 -7
-4 -4 1 7 11 20 16 20 16 -1 12 -17 -4 -20 -1 -16 17 2 13 -1 26 -7 29 -7 4
-9 1 -5 -7 3 -8 1 -17 -4 -21 -5 -3 -8 8 -7 24 1 17 -2 27 -8 23 -6 -4 -8 1
-4 11 4 10 3 15 -3 11 -6 -3 -10 -1 -10 4 0 6 -7 11 -16 11 -8 0 -12 5 -9 10
3 6 1 10 -6 10 -9 0 -9 3 0 14 10 12 8 13 -8 9 -16 -4 -21 -1 -21 16 0 11 -5
21 -11 21 -5 0 -7 -5 -3 -12 4 -7 3 -8 -5 -4 -9 6 -9 11 1 24 11 13 10 15 -4
9 -14 -5 -18 -1 -18 16 0 16 -6 23 -22 24 -13 1 -24 7 -26 13 -2 6 -10 16 -17
24 -10 9 -11 16 -3 24 12 12 -24 36 -38 24 -5 -4 -3 0 3 8 8 11 9 20 1 30 -8
12 -9 12 -4 -2 3 -10 1 -18 -4 -18 -9 0 -12 15 -9 36 2 13 -56 64 -68 60 -7
-3 -13 -1 -13 3 0 5 6 12 13 14 6 3 2 6 -10 6 -13 1 -23 7 -23 15 0 8 -9 18
-20 21 -18 6 -25 17 -21 38 1 5 -9 5 -21 2 -18 -6 -20 -5 -11 5 9 10 6 18 -15
35 -15 12 -37 25 -49 29 -15 5 -20 13 -18 26 5 24 1 25 -19 4 -9 -8 -16 -11
-16 -5 0 5 5 13 11 17 7 4 -1 12 -21 20 -17 8 -34 23 -37 34 -3 10 -14 22 -24
25 -16 5 -17 10 -8 26 10 19 9 20 -11 9 -16 -8 -20 -9 -16 -1 4 6 0 14 -9 17
-9 4 -14 13 -11 20 3 8 0 11 -8 8 -7 -3 -16 2 -20 11 -3 9 -11 13 -17 9 -8 -4
-7 0 1 16 11 20 10 21 -10 10 -15 -8 -20 -8 -16 -1 7 10 -6 16 -27 12 -5 -1
-6 3 -2 9 3 6 12 8 18 4 7 -3 3 1 -8 10 -11 8 -25 20 -31 25 -8 6 -16 5 -23
-2 -9 -9 -11 -8 -6 5 4 11 0 18 -14 23 -13 4 -18 11 -14 18 4 8 1 8 -9 -1 -13
-10 -17 -10 -22 3 -3 9 -2 13 3 10 5 -3 12 -1 15 4 7 10 -13 9 -31 -2 -8 -5
-11 -1 -8 13 2 11 1 19 -3 19 -22 -4 -32 4 -33 24 0 21 -1 21 -9 2 -7 -17 -9
-17 -9 -2 -1 10 -9 17 -21 17 -11 0 -20 7 -20 15 0 8 -4 15 -9 15 -5 0 -13 9
-16 21 -4 11 -9 19 -11 16 -3 -2 0 -16 6 -31 6 -18 6 -25 0 -21 -6 3 -10 13
-10 21 0 8 -4 13 -9 10 -5 -4 -8 5 -7 19 2 13 0 22 -4 20 -5 -3 -11 2 -14 11
-3 8 -10 13 -15 10 -5 -4 -12 -1 -14 4 -4 7 -5 6 -3 0 1 -7 5 -11 10 -10 9 2
26 -19 26 -33 0 -5 -7 -1 -16 7 -8 9 -20 13 -26 10 -6 -4 -8 -2 -4 4 3 6 -1
18 -10 26 -10 11 -11 16 -3 16 7 0 9 3 6 6 -4 4 -14 1 -24 -7 -11 -9 -14 -10
-9 -1 5 8 1 12 -11 12 -15 0 -16 2 -3 10 13 8 12 10 -3 10 -10 0 -16 4 -13 8
2 4 -5 9 -17 9 -20 2 -20 1 -4 -8 9 -6 17 -14 17 -19 0 -6 -9 -2 -20 7 -16 14
-17 20 -7 32 9 11 9 13 0 8 -6 -4 -14 -3 -18 3 -4 6 -11 8 -16 5 -5 -4 -9 -1
-9 6 0 8 -3 9 -14 0 -11 -9 -13 -6 -10 15 1 14 0 23 -3 20 -3 -3 -14 -1 -25 5
-14 7 -23 7 -33 -1 -12 -10 -13 -8 -10 9 3 15 -1 21 -15 21 -10 0 -21 7 -24
16 -3 8 -10 12 -16 9 -5 -3 -10 -1 -10 5 0 6 -5 8 -12 4 -9 -5 -9 -2 1 9 13
16 2 25 -13 10 -10 -11 -37 -12 -30 -2 3 5 11 6 17 2 8 -5 8 -2 0 9 -7 8 -11
17 -8 20 3 2 -4 4 -15 3 -11 -1 -23 -5 -27 -10 -5 -4 -3 -5 4 -1 6 3 14 2 17
-3 4 -5 -2 -8 -11 -7 -10 2 -19 8 -19 14 -4 33 -6 35 -14 17 l-9 -20 0 20 c-1
17 -3 17 -11 5 -8 -13 -10 -12 -11 5 -1 11 0 25 1 30 1 6 -2 7 -6 2 -4 -4 -18
0 -31 8 -13 9 -23 12 -23 9 0 -4 -10 1 -22 12 -12 10 -18 13 -14 7 11 -19 -5
-16 -21 5 -10 11 -12 12 -8 2 4 -9 1 -8 -8 3 -11 14 -16 15 -21 5 -3 -7 -4 -3
-2 9 3 19 1 21 -14 13 -28 -15 -34 -12 -19 7 10 11 10 14 2 9 -8 -4 -13 -2
-13 6 0 9 -3 9 -10 -2 -8 -13 -10 -12 -10 4 0 20 0 20 -14 0 -14 -19 -14 -19
-13 1 1 14 -3 19 -16 17 -9 -2 -20 4 -23 13 -3 8 -10 15 -16 15 -5 0 -6 -6 -2
-12 5 -9 2 -9 -9 1 -13 11 -17 11 -17 1 0 -8 -3 -10 -6 -7 -4 4 -1 13 6 22 14
17 3 20 -20 5 -11 -7 -22 -1 -42 21 -16 17 -33 27 -38 24 -17 -10 -52 5 -46
20 3 9 0 12 -10 8 -8 -3 -21 0 -29 7 -8 7 -21 10 -30 6 -8 -3 -14 0 -12 6 1 7
-4 13 -10 14 -7 1 -18 2 -24 3 -5 0 -8 5 -5 10 4 5 -2 8 -11 6 -10 -1 -24 3
-32 9 -11 8 -13 8 -7 -1 5 -9 2 -11 -8 -7 -9 3 -13 10 -10 15 3 5 -2 9 -11 9
-10 0 -13 -5 -9 -12 4 -7 3 -8 -4 -4 -7 4 -12 14 -12 22 0 8 -4 13 -10 9 -5
-3 -6 -13 -3 -23 6 -16 6 -16 -11 0 -9 10 -15 21 -12 26 2 4 -4 8 -14 8 -10 0
-17 -5 -16 -11 2 -5 1 -7 -1 -2 -3 4 -9 5 -14 2 -5 -4 -6 0 -3 8 3 8 -2 17
-11 21 -9 3 -13 2 -10 -4 3 -6 1 -10 -4 -10 -6 0 -11 7 -11 15 0 8 -5 15 -11
15 -5 0 -8 -4 -5 -8 7 -11 -31 -8 -41 3 -5 4 -1 4 7 0 13 -8 13 -6 2 7 -7 9
-21 15 -30 13 -9 -1 -30 4 -47 13 l-30 15 20 -24 20 -24 -20 15 c-11 8 -23 20
-27 25 -5 7 -14 6 -26 -2 -17 -10 -19 -9 -16 13 3 28 1 29 -20 8 -9 -8 -16
-11 -16 -5 0 6 -9 11 -20 11 -11 0 -20 5 -20 10 0 6 -5 10 -11 10 -5 0 -8 -4
-4 -9 3 -5 1 -13 -5 -16 -6 -4 -10 -3 -9 2 4 20 -2 24 -18 12 -9 -8 -14 -9
-10 -3 4 7 0 15 -9 18 -10 4 -13 2 -8 -6 5 -7 3 -8 -5 -4 -7 5 -10 15 -7 23 3
8 1 11 -4 8 -6 -3 -10 -12 -10 -20 0 -8 -4 -16 -9 -19 -5 -4 -7 3 -4 15 5 18
2 20 -26 17 -20 -2 -35 3 -41 12 -5 8 -10 11 -10 5 0 -5 -4 -4 -9 4 -5 8 -19
15 -30 16 -16 1 -18 -1 -9 -12 8 -11 7 -12 -6 -7 -9 3 -16 9 -16 13 0 16 -47
30 -59 18 -8 -8 -11 -8 -11 1 0 7 -5 12 -11 12 -5 0 -8 -4 -4 -9 3 -5 0 -13
-6 -17 -7 -4 -9 -3 -6 3 3 5 -3 18 -15 27 -18 16 -20 16 -15 2 4 -9 2 -16 -2
-16 -5 0 -11 5 -13 12 -3 7 -16 13 -31 13 -19 1 -24 -1 -17 -9 6 -8 3 -12 -9
-12 -13 0 -17 5 -13 16 3 8 2 12 -3 8 -4 -4 -17 -3 -28 3 -15 9 -18 8 -11 -3
4 -7 -2 -4 -15 6 -18 16 -24 17 -34 6 -10 -10 -8 -12 8 -6 16 6 17 5 8 -5 -9
-9 -16 -9 -26 -1 -8 7 -18 8 -22 4 -5 -4 -4 -1 0 7 6 11 4 13 -9 8 -10 -4 -15
-3 -11 3 7 11 -23 9 -43 -4 -8 -5 -19 -3 -25 3 -9 9 -8 11 6 6 9 -4 17 -3 17
2 0 11 -60 11 -78 -1 -7 -4 -19 -2 -28 5 -13 10 -17 10 -25 -2 -5 -8 -9 -9 -9
-3 0 7 -9 14 -21 17 -16 4 -19 2 -15 -11 4 -10 -1 -8 -12 6 -14 18 -20 20 -30
10 -9 -9 -12 -9 -12 0 0 7 -5 12 -11 12 -5 0 -8 -3 -5 -8 2 -4 -9 -8 -26 -9
-20 0 -26 2 -17 7 7 5 17 6 23 3 5 -3 6 -2 3 3 -8 15 -57 9 -68 -7 -7 -11 -9
-11 -9 3 0 9 -4 20 -10 23 -6 4 -7 -1 -3 -11 5 -14 3 -15 -12 -7 -21 12 -55 6
-55 -10 0 -6 -7 -2 -15 9 -11 14 -14 15 -15 4 0 -9 -3 -11 -8 -5 -9 13 -72 16
-72 3 0 -5 5 -6 12 -2 7 4 8 3 4 -5 -10 -16 -38 6 -30 23 3 6 -4 0 -16 -14
-12 -14 -19 -20 -17 -15 3 6 -3 16 -13 23 -16 9 -21 9 -28 -4 -6 -11 -11 -13
-16 -5 -4 6 -12 11 -17 11 -6 0 -8 -4 -4 -9 3 -6 -6 -6 -24 -1 -21 6 -31 5
-35 -3 -3 -9 -5 -9 -5 0 -1 8 -10 9 -31 3 -18 -5 -30 -5 -30 1 0 5 -5 9 -11 9
-5 0 -8 -4 -5 -9 7 -11 -13 -9 -31 2 -8 5 -13 3 -13 -3 0 -8 -6 -8 -20 0 -17
9 -20 8 -20 -7 -1 -14 -4 -13 -15 7 -13 23 -14 23 -15 5z m701 -38 c-10 -9
-11 -8 -5 6 3 10 9 15 12 12 3 -3 0 -11 -7 -18z m599 -81 c0 -10 -30 0 -34 11
-4 11 -1 11 14 3 11 -6 20 -12 20 -14z m757 -231 c0 -8 -4 -12 -9 -9 -5 3 -6
10 -3 15 9 13 12 11 12 -6z m-3547 1 c0 -3 -4 -8 -10 -11 -5 -3 -10 -1 -10 4
0 6 5 11 10 11 6 0 10 -2 10 -4z m3760 -85 c0 -4 -6 -8 -13 -8 -8 0 -14 6 -14
13 0 7 6 10 14 7 7 -3 13 -8 13 -12z m324 -159 c3 -5 -1 -9 -9 -9 -8 0 -12 4
-9 9 3 4 7 8 9 8 2 0 6 -4 9 -8z m36 -23 c0 -6 -4 -7 -10 -4 -5 3 -10 11 -10
16 0 6 5 7 10 4 6 -3 10 -11 10 -16z m304 -177 c3 -5 -1 -9 -9 -9 -8 0 -12 4
-9 9 3 4 7 8 9 8 2 0 6 -4 9 -8z m56 -42 c0 -5 -5 -10 -11 -10 -5 0 -7 5 -4
10 3 6 8 10 11 10 2 0 4 -4 4 -10z m-6027 -515 c-3 -9 -8 -14 -10 -11 -3 3 -2
9 2 15 9 16 15 13 8 -4z m-31 -28 c-7 -8 -8 -18 -4 -22 4 -5 1 -5 -6 -1 -9 5
-9 12 -1 27 6 12 13 18 16 15 3 -3 1 -12 -5 -19z m6847 -120 c8 -10 7 -14 -2
-14 -8 0 -14 6 -14 14 0 7 1 13 2 13 2 0 8 -6 14 -13z m-7048 -100 c-10 -9
-11 -8 -5 6 3 10 9 15 12 12 3 -3 0 -11 -7 -18z m7193 -45 c3 -5 -1 -9 -9 -9
-8 0 -12 4 -9 9 3 4 7 8 9 8 2 0 6 -4 9 -8z m31 -32 c3 -6 -1 -7 -9 -4 -18 7
-21 14 -7 14 6 0 13 -4 16 -10z m62 -86 c-3 -3 -12 -4 -19 -1 -8 3 -5 6 6 6
11 1 17 -2 13 -5z m58 -92 c-3 -3 -11 0 -18 7 -9 10 -8 11 6 5 10 -3 15 -9 12
-12z m-7757 -257 c-3 -3 -9 2 -12 12 -6 14 -5 15 5 6 7 -7 10 -15 7 -18z
m8302 -549 c0 -2 -7 -7 -16 -10 -8 -3 -12 -2 -9 4 6 10 25 14 25 6z m197 -491
c0 -8 -4 -15 -9 -15 -10 0 -11 14 -1 23 9 10 10 9 10 -8z m-9047 -41 c0 -8
-19 -13 -24 -6 -3 5 1 9 9 9 8 0 15 -2 15 -3z m9095 -84 c-1 -11 -4 -22 -7
-25 -4 -5 -4 34 1 43 4 8 7 -1 6 -18z m85 -294 c0 -3 -4 -8 -10 -11 -5 -3 -10
-1 -10 4 0 6 5 11 10 11 6 0 10 -2 10 -4z m-9330 -90 c0 -2 -8 -10 -17 -17
-16 -13 -17 -12 -4 4 13 16 21 21 21 13z m-134 -1185 c-4 -6 -13 -11 -19 -11
-8 0 -7 3 2 9 8 5 10 14 6 22 -6 11 -5 11 5 2 7 -6 9 -16 6 -22z m114 -1065
c0 -3 -4 -8 -10 -11 -5 -3 -10 -1 -10 4 0 6 5 11 10 11 6 0 10 -2 10 -4z m10
-30 c0 -2 -7 -7 -16 -10 -8 -3 -12 -2 -9 4 6 10 25 14 25 6z m116 -445 c-8
-13 4 -42 15 -35 5 3 9 3 9 0 0 -16 -21 -13 -30 4 -10 18 -7 40 6 40 3 0 3 -4
0 -9z m9029 -302 c-4 -5 -12 -9 -18 -8 -9 0 -8 2 1 6 6 2 9 10 6 15 -4 7 -2 8
5 4 6 -4 9 -12 6 -17z m-132 -284 c-3 -9 -8 -14 -10 -11 -3 3 -2 9 2 15 9 16
15 13 8 -4z m-8599 -104 c-2 -3 -12 3 -22 13 -16 17 -16 18 5 5 12 -7 20 -15
17 -18z m8391 -280 c3 -5 1 -12 -5 -16 -5 -3 -10 1 -10 9 0 18 6 21 15 7z
m-7795 -606 c11 -13 10 -14 -4 -9 -9 3 -16 10 -16 15 0 13 6 11 20 -6z m41
-68 c-10 -9 -11 -8 -5 6 3 10 9 15 12 12 3 -3 0 -11 -7 -18z m7149 -106 c0 -5
-8 -15 -17 -22 -16 -12 -17 -12 -6 2 7 9 10 19 6 22 -3 4 -1 7 5 7 7 0 12 -4
12 -9z m-6586 -423 c-3 -4 -11 -5 -19 -1 -21 7 -19 12 4 10 11 0 18 -5 15 -9z
m6156 7 c0 -2 -7 -8 -15 -15 -12 -10 -15 -10 -15 2 0 8 7 15 15 15 8 0 15 -1
15 -2z m-339 -248 c-10 -9 -11 -8 -5 6 3 10 9 15 12 12 3 -3 0 -11 -7 -18z
m-593 -354 c-2 -9 -11 -17 -21 -19 -9 -1 -15 2 -11 7 3 5 10 7 15 4 5 -4 9 1
9 9 0 9 3 16 6 16 3 0 4 -7 2 -17z m-4258 -17 c0 -3 -4 -8 -10 -11 -5 -3 -10
-1 -10 4 0 6 5 11 10 11 6 0 10 -2 10 -4z m42 -20 c7 4 8 2 4 -5 -9 -13 -26
-5 -25 12 0 9 2 8 6 -1 2 -6 10 -9 15 -6z m231 -117 c-8 -8 -13 -7 -18 2 -5 8
-4 10 3 5 7 -4 12 -2 12 5 0 7 3 9 7 6 4 -4 2 -12 -4 -18z m122 -39 c3 -5 1
-10 -4 -10 -6 0 -11 5 -11 10 0 6 2 10 4 10 3 0 8 -4 11 -10z m3300 -39 c3 -5
2 -12 -3 -15 -5 -3 -9 1 -9 9 0 17 3 19 12 6z m-2495 -185 c0 -2 -7 -7 -16
-10 -8 -3 -12 -2 -9 4 6 10 25 14 25 6z m1540 -52 c0 -8 -19 -13 -24 -6 -3 5
1 9 9 9 8 0 15 -2 15 -3z m-980 -28 c0 -3 -4 -8 -10 -11 -5 -3 -10 -1 -10 4 0
6 5 11 10 11 6 0 10 -2 10 -4z"/>
<path d="M3586 9628 c3 -5 10 -6 15 -3 13 9 11 12 -6 12 -8 0 -12 -4 -9 -9z"/>
<path d="M6915 9440 c-3 -5 -1 -10 4 -10 6 0 11 5 11 10 0 6 -2 10 -4 10 -3 0
-8 -4 -11 -10z"/>
<path d="M6990 9401 c0 -5 5 -13 10 -16 6 -3 10 -2 10 4 0 5 -4 13 -10 16 -5
3 -10 2 -10 -4z"/>
<path d="M2797 9323 c-4 -3 -7 -11 -7 -17 0 -6 5 -5 12 2 6 6 9 14 7 17 -3 3
-9 2 -12 -2z"/>
<path d="M7585 9080 c-3 -6 1 -7 9 -4 18 7 21 14 7 14 -6 0 -13 -4 -16 -10z"/>
<path d="M1724 8582 c3 -5 0 -13 -6 -15 -9 -4 -10 -6 -1 -6 17 -1 25 16 12 25
-7 4 -9 3 -5 -4z"/>
<path d="M8340 8480 c0 -5 5 -10 11 -10 5 0 7 5 4 10 -3 6 -8 10 -11 10 -2 0
-4 -4 -4 -10z"/>
<path d="M8350 8456 c0 -2 7 -7 16 -10 8 -3 12 -2 9 4 -6 10 -25 14 -25 6z"/>
<path d="M1564 8422 c3 -5 0 -13 -6 -15 -9 -4 -10 -6 -1 -6 17 -1 25 16 12 25
-7 4 -9 3 -5 -4z"/>
<path d="M1264 8102 c3 -6 -4 -18 -16 -26 -12 -9 -18 -16 -12 -16 6 0 19 9 28
19 13 14 14 21 5 27 -7 4 -10 3 -5 -4z"/>
<path d="M8737 8064 c-8 -9 11 -44 24 -44 6 0 3 7 -5 16 -9 8 -14 20 -11 25 7
10 1 12 -8 3z"/>
<path d="M1055 7840 c-3 -5 -1 -10 4 -10 6 0 11 5 11 10 0 6 -2 10 -4 10 -3 0
-8 -4 -11 -10z"/>
<path d="M875 7560 c-3 -5 -1 -10 4 -10 6 0 11 5 11 10 0 6 -2 10 -4 10 -3 0
-8 -4 -11 -10z"/>
<path d="M9445 6860 c4 -6 11 -8 16 -5 14 9 11 15 -7 15 -8 0 -12 -5 -9 -10z"/>
<path d="M9495 6780 c3 -5 8 -10 11 -10 2 0 4 5 4 10 0 6 -5 10 -11 10 -5 0
-7 -4 -4 -10z"/>
<path d="M150 5396 c0 -2 7 -9 15 -16 9 -7 15 -8 15 -2 0 5 -7 12 -15 16 -8 3
-15 4 -15 2z"/>
<path d="M9745 4141 c-3 -5 -2 -12 3 -15 5 -3 9 1 9 9 0 17 -3 19 -12 6z"/>
<path d="M330 3676 c0 -2 7 -7 16 -10 8 -3 12 -2 9 4 -6 10 -25 14 -25 6z"/>
<path d="M390 3479 c0 -5 5 -7 10 -4 6 3 10 8 10 11 0 2 -4 4 -10 4 -5 0 -10
-5 -10 -11z"/>
<path d="M630 2880 c0 -5 5 -10 11 -10 5 0 7 5 4 10 -3 6 -8 10 -11 10 -2 0
-4 -4 -4 -10z"/>
<path d="M797 2559 c7 -7 15 -10 18 -7 3 3 -2 9 -12 12 -14 6 -15 5 -6 -5z"/>
<path d="M9067 2399 c4 -13 8 -18 11 -10 2 7 -1 18 -6 23 -8 8 -9 4 -5 -13z"/>
<path d="M9020 2319 c0 -5 5 -7 10 -4 6 3 10 8 10 11 0 2 -4 4 -10 4 -5 0 -10
-5 -10 -11z"/>
<path d="M1240 1922 c0 -5 7 -9 15 -9 8 0 12 4 9 9 -3 4 -9 8 -15 8 -5 0 -9
-4 -9 -8z"/>
<path d="M8626 1815 c-9 -14 -12 -25 -7 -25 5 0 13 9 16 20 4 11 11 17 17 14
7 -4 8 -2 4 4 -10 16 -11 16 -30 -13z"/>
<path d="M1386 1767 c3 -8 11 -14 19 -14 20 0 19 4 -5 17 -15 8 -18 8 -14 -3z"/>
<path d="M8361 1551 c-8 -5 -9 -11 -3 -15 5 -3 12 1 16 9 6 17 6 18 -13 6z"/>
<path d="M2373 925 c0 -8 4 -12 9 -9 5 3 6 10 3 15 -9 13 -12 11 -12 -6z"/>
<path d="M7465 850 c-3 -5 -1 -10 4 -10 6 0 11 5 11 10 0 6 -2 10 -4 10 -3 0
-8 -4 -11 -10z"/>
<path d="M3715 339 c-4 -6 -4 -13 -1 -16 3 -4 6 -1 6 6 0 7 5 9 12 5 7 -4 8
-3 4 4 -9 15 -13 15 -21 1z"/>
<path d="M4371 194 c0 -11 3 -14 6 -6 3 7 2 16 -1 19 -3 4 -6 -2 -5 -13z"/>
<path d="M5320 170 c-9 -6 -10 -10 -3 -10 6 0 15 5 18 10 8 12 4 12 -15 0z"/>
</g>
</svg>
