<?xml version="1.0" ?><!DOCTYPE svg  PUBLIC '-//W3C//DTD SVG 1.1//EN'  'http://www.w3.org/Graphics/SVG/1.1/DTD/svg11.dtd'><svg viewBox="0 0 512 512" xmlns="http://www.w3.org/2000/svg" xmlns:xlink="http://www.w3.org/1999/xlink"><style>:root>svg{display:none}:root>svg:target{display:block}</style><svg viewBox="0 0 72 72" id="email" xmlns="http://www.w3.org/2000/svg"><g fill="none" fill-rule="evenodd"><path d="M36 72c19.882 0 36-16.118 36-36S55.882 0 36 0 0 16.118 0 36s16.118 36 36 36z" fill="#000"/><path d="M18 26.162v20.386c0 1.109.812 2.007 1.93 2.007h31.815c1.117 0 1.93-.909 1.93-2.007V26.162c0-1.217-.727-2.162-1.93-2.162H19.93c-1.25 0-1.93.969-1.93 2.162m2.933 1.776c0-.491.298-.772.773-.772.293 0 11.854 7.325 12.554 7.755l1.81 1.125c.573-.384 1.15-.713 1.744-1.111 1.213-.776 12.011-7.77 12.308-7.77.477 0 .773.282.773.773 0 .52-1.002 1.037-1.655 1.435-4.1 2.5-8.2 5.224-12.26 7.816-.237.16-.695.503-1.04.45-.382-.059-12.146-7.617-14.287-8.875-.321-.19-.72-.363-.72-.826" fill="#FFF"/></g></svg><svg viewBox="0 0 128 128" id="instagram" xmlns="http://www.w3.org/2000/svg"><path clip-rule="evenodd" fill="none" d="M0 0h128v128H0z"/><radialGradient cx="19.111" cy="128.444" gradientUnits="userSpaceOnUse" id="ba" r="163.552"><stop offset="0" stop-color="#ffb140"/><stop offset=".256" stop-color="#ff5445"/><stop offset=".599" stop-color="#fc2b82"/><stop offset="1" stop-color="#8e40b7"/></radialGradient><path clip-rule="evenodd" d="M105.843 29.837a7.68 7.68 0 11-15.36 0 7.68 7.68 0 0115.36 0zM64 85.333c-11.782 0-21.333-9.551-21.333-21.333 0-11.782 9.551-21.333 21.333-21.333 11.782 0 21.333 9.551 21.333 21.333 0 11.782-9.551 21.333-21.333 21.333zm0-54.198c-18.151 0-32.865 14.714-32.865 32.865 0 18.151 14.714 32.865 32.865 32.865 18.151 0 32.865-14.714 32.865-32.865 0-18.151-14.714-32.865-32.865-32.865zm0-19.603c17.089 0 19.113.065 25.861.373 6.24.285 9.629 1.327 11.884 2.204 2.987 1.161 5.119 2.548 7.359 4.788 2.24 2.239 3.627 4.371 4.788 7.359.876 2.255 1.919 5.644 2.204 11.884.308 6.749.373 8.773.373 25.862s-.065 19.113-.373 25.861c-.285 6.24-1.327 9.629-2.204 11.884-1.161 2.987-2.548 5.119-4.788 7.359-2.239 2.24-4.371 3.627-7.359 4.788-2.255.876-5.644 1.919-11.884 2.204-6.748.308-8.772.373-25.861.373-17.09 0-19.114-.065-25.862-.373-6.24-.285-9.629-1.327-11.884-2.204-2.987-1.161-5.119-2.548-7.359-4.788-2.239-2.239-3.627-4.371-4.788-7.359-.876-2.255-1.919-5.644-2.204-11.884-.308-6.749-.373-8.773-.373-25.861 0-17.089.065-19.113.373-25.862.285-6.24 1.327-9.629 2.204-11.884 1.161-2.987 2.548-5.119 4.788-7.359 2.239-2.24 4.371-3.627 7.359-4.788 2.255-.876 5.644-1.919 11.884-2.204 6.749-.308 8.773-.373 25.862-.373zM64 0C46.619 0 44.439.074 37.613.385 30.801.696 26.148 1.778 22.078 3.36c-4.209 1.635-7.778 3.824-11.336 7.382C7.184 14.3 4.995 17.869 3.36 22.078 1.778 26.149.696 30.801.385 37.613.074 44.439 0 46.619 0 64s.074 19.561.385 26.387c.311 6.812 1.393 11.464 2.975 15.535 1.635 4.209 3.824 7.778 7.382 11.336 3.558 3.558 7.127 5.746 11.336 7.382 4.071 1.582 8.723 2.664 15.535 2.975 6.826.311 9.006.385 26.387.385s19.561-.074 26.387-.385c6.812-.311 11.464-1.393 15.535-2.975 4.209-1.636 7.778-3.824 11.336-7.382 3.558-3.558 5.746-7.127 7.382-11.336 1.582-4.071 2.664-8.723 2.975-15.535.311-6.826.385-9.006.385-26.387s-.074-19.561-.385-26.387c-.311-6.812-1.393-11.464-2.975-15.535-1.636-4.209-3.824-7.778-7.382-11.336-3.558-3.558-7.127-5.746-11.336-7.382C101.851 1.778 97.199.696 90.387.385 83.561.074 81.381 0 64 0z" fill="url(#ba)" fill-rule="evenodd"/></svg><svg viewBox="0 0 128 128" id="telegram" xmlns="http://www.w3.org/2000/svg"><defs><linearGradient id="ca" x1="50%" x2="50%" y1="0%" y2="99.258%"><stop offset="0%" stop-color="#2AABEE"/><stop offset="100%" stop-color="#229ED9"/></linearGradient></defs><g fill="none" fill-rule="nonzero"><circle cx="64" cy="64" r="64" fill="url(#ca)"/><path fill="#FFF" d="M28.97 63.324c18.657-8.128 31.098-13.487 37.323-16.076 17.774-7.393 21.467-8.677 23.874-8.72.53-.009 1.713.122 2.48.745.648.525.826 1.235.911 1.733.085.498.191 1.633.107 2.52-.963 10.12-5.13 34.677-7.25 46.012-.898 4.796-2.664 6.404-4.375 6.561-3.716.342-6.538-2.456-10.138-4.815-5.633-3.693-8.815-5.991-14.283-9.594-6.319-4.164-2.222-6.453 1.379-10.193.942-.98 17.318-15.874 17.634-17.225.04-.169.077-.799-.297-1.131-.375-.333-.927-.22-1.325-.129-.565.128-9.564 6.076-26.996 17.843-2.554 1.754-4.868 2.609-6.94 2.564-2.286-.05-6.681-1.292-9.95-2.354-4.007-1.303-7.193-1.992-6.915-4.205.144-1.152 1.731-2.33 4.761-3.536z"/></g></svg><svg id="vk" version="1.1" viewBox="0 0 512 512" xml:space="preserve" xmlns="http://www.w3.org/2000/svg"><style>.dst0{fill:#4d76a1}.dst1{fill-rule:evenodd;clip-rule:evenodd;fill:#fff}</style><circle class="dst0" cx="256" cy="256" r="256"/><path class="dst1" d="M246.3 368.3h20.1s6.1-.7 9.2-4c2.9-3.1 2.8-8.8 2.8-8.8s-.4-27 12.1-30.9c12.3-3.9 28.2 26 45 37.6 12.7 8.7 22.3 6.8 22.3 6.8l44.9-.6s23.5-1.4 12.3-19.9c-.9-1.5-6.5-13.7-33.4-38.6-28.1-26.1-24.4-21.9 9.5-67.1 20.7-27.5 28.9-44.3 26.3-51.5-2.5-6.9-17.6-5-17.6-5l-50.6.3s-3.7-.5-6.5 1.1c-2.7 1.6-4.5 5.4-4.5 5.4s-8 21.3-18.7 39.4c-22.5 38.2-31.5 40.2-35.2 37.9-8.6-5.6-6.4-22.2-6.4-34.1 0-37 5.6-52.5-10.9-56.5-5.5-1.3-9.5-2.2-23.6-2.3-18-.2-33.3 0-42 4.3-5.7 2.8-10.2 9.1-7.5 9.4 3.3.4 10.9 2.1 14.9 7.5 5.2 7 5 22.9 5 22.9s3 43.6-7 49c-6.8 3.7-16.2-3.9-36.2-38.5-10.3-17.8-18-37.4-18-37.4s-1.5-3.7-4.2-5.6c-3.3-2.4-7.8-3.1-7.8-3.1l-48 .3s-7.2.2-9.9 3.3c-2.3 2.8-.2 8.6-.2 8.6s37.6 88 80.2 132.3c39.3 40.5 83.6 37.8 83.6 37.8zm0 0"/></svg></svg>